<?xml version="1.0" standalone="no"?>
<!DOCTYPE svg PUBLIC "-//W3C//DTD SVG 20010904//EN"
 "http://www.w3.org/TR/2001/REC-SVG-20010904/DTD/svg10.dtd">
<svg version="1.0" xmlns="http://www.w3.org/2000/svg"
 width="3788.000000pt" height="1374.000000pt" viewBox="0 0 3788.000000 1374.000000"
 preserveAspectRatio="xMidYMid meet">
<metadata>
Created by potrace 1.15, written by Peter Selinger 2001-2017
</metadata>
<g transform="translate(0.000000,1374.000000) scale(0.100000,-0.100000)"
fill="#000000" stroke="none">
<path d="M9945 13610 c-630 -408 -1368 -800 -2215 -1175 -1326 -588 -3141
-1083 -4970 -1355 -531 -80 -1034 -143 -1550 -195 -327 -33 -325 -33 -400 -40
-36 -3 -81 -8 -100 -10 -19 -2 -71 -7 -115 -10 -44 -3 -127 -10 -185 -15 -58
-5 -141 -12 -185 -16 -44 -4 -87 -8 -95 -10 -8 -1 -33 -3 -55 -3 -77 -2 -77
-3 57 -217 431 -692 738 -1324 1050 -2164 414 -1115 747 -2477 943 -3860 9
-63 18 -126 20 -140 4 -25 16 -117 35 -272 6 -46 13 -99 15 -118 12 -90 56
-513 70 -665 15 -172 17 -194 35 -410 12 -155 28 -398 35 -550 3 -66 8 -142
10 -170 3 -27 8 -149 11 -270 4 -121 8 -247 9 -280 2 -33 4 -417 5 -852 0
-498 4 -793 10 -793 6 0 10 4 10 9 0 5 41 96 91 203 340 722 605 1436 850
2297 171 601 347 1386 425 1896 67 441 98 680 138 1055 23 208 32 315 51 600
18 260 25 647 25 1393 l0 847 33 0 c17 0 73 -5 122 -10 194 -20 438 -37 595
-41 405 -11 1739 0 1925 16 22 2 94 6 160 9 635 33 1684 193 2565 391 517 116
1056 263 1635 447 283 90 325 115 352 207 25 86 14 204 -67 746 -171 1144
-420 2066 -798 2951 -147 343 -321 704 -340 704 -4 0 -97 -58 -207 -130z"/>
<path d="M13552 8557 l-144 -144 5 -1469 c3 -808 8 -1514 12 -1569 7 -128 23
-235 36 -251 32 -39 180 -54 489 -49 255 3 350 16 377 51 30 41 38 158 38 589
0 379 -2 437 -17 486 -10 30 -27 64 -38 74 -28 25 -25 42 8 49 95 18 187 24
452 31 124 3 279 7 345 10 66 3 228 8 360 11 132 3 244 9 248 13 4 5 9 163 10
352 2 395 0 412 -61 429 -20 5 -107 13 -192 16 -85 3 -164 8 -175 9 -11 2
-225 4 -476 4 l-457 1 -5 228 c-5 245 -11 280 -59 350 -37 53 -30 63 49 73 32
4 303 7 603 8 299 1 574 4 610 6 36 2 120 7 187 10 194 9 253 25 288 79 20 31
37 179 30 276 -2 41 -7 158 -10 260 -4 101 -7 185 -8 186 -1 1 -290 4 -642 8
-352 3 -883 9 -1180 12 l-540 5 -143 -144z"/>
<path d="M21848 8604 c-82 -74 -114 -110 -135 -153 -28 -56 -28 -56 -32 -313
l-3 -258 73 -1 c41 0 88 -2 104 -4 17 -1 104 -6 195 -9 183 -8 233 -11 433
-31 75 -8 146 -19 157 -25 22 -12 36 -59 44 -150 6 -66 12 -632 21 -1715 2
-330 6 -613 9 -630 2 -16 7 -54 11 -84 15 -135 58 -150 430 -156 228 -4 413 9
477 34 36 13 45 51 56 221 22 340 22 1957 1 2215 -13 148 -25 193 -69 254 -22
30 -38 56 -37 57 1 1 166 5 367 9 201 4 457 10 570 14 l205 6 2 392 c1 216 -1
394 -5 396 -4 3 -338 7 -742 11 -404 3 -1025 8 -1380 11 l-645 6 -107 -97z"/>
<path d="M25630 8689 c-167 -7 -266 -21 -315 -46 -86 -45 -185 -188 -216 -313
-16 -62 -16 -339 -1 -380 11 -29 -44 -26 537 -34 497 -7 1043 -24 1057 -32 13
-8 -216 -289 -1080 -1327 l-581 -698 1 -232 c1 -398 15 -485 82 -512 69 -28
540 -40 1576 -40 787 0 1219 8 1275 23 58 16 60 29 58 421 0 194 -5 357 -10
361 -4 4 -235 11 -513 14 -932 12 -1070 20 -1070 66 0 18 95 146 330 445 138
175 880 1104 1095 1370 l122 151 6 159 c12 270 7 462 -11 540 l-17 70 -1085 1
c-597 0 -1155 -3 -1240 -7z"/>
<path d="M30352 8593 c-73 -74 -119 -129 -142 -173 l-35 -65 0 -1325 c-1 -729
1 -1454 2 -1612 l4 -288 459 0 460 0 1 93 c1 50 2 110 4 132 2 22 5 202 6 400
5 441 5 440 -89 538 l-65 67 489 1 c269 0 530 2 579 4 312 13 401 24 423 52
28 39 41 130 46 333 7 246 -12 365 -64 398 -28 17 -141 32 -300 38 -74 3 -153
7 -175 9 -22 2 -218 4 -437 4 l-396 1 -4 218 c-3 205 -5 220 -29 277 -14 33
-49 92 -79 130 l-53 70 169 6 c93 4 493 10 889 14 396 4 736 8 755 9 l35 2 3
377 2 377 -287 1 c-159 1 -364 3 -458 4 -93 2 -493 6 -888 10 l-718 6 -107
-108z"/>
<path d="M33949 8696 c-2 -2 -37 -7 -77 -10 -157 -15 -272 -58 -365 -137 -87
-74 -101 -116 -122 -349 -3 -36 -9 -636 -11 -1335 -6 -1255 -1 -1576 27 -1704
18 -85 23 -86 389 -86 314 0 475 13 517 40 22 15 25 30 38 180 28 343 28 2839
0 3180 -15 180 -16 181 -96 206 -31 10 -292 22 -300 15z"/>
<path d="M35002 8592 c-71 -68 -118 -122 -129 -147 -15 -34 -18 -81 -21 -302
l-3 -263 123 -1 c68 0 148 -2 178 -4 30 -2 141 -6 245 -9 191 -7 225 -9 323
-26 80 -14 105 -30 113 -69 11 -55 18 -136 24 -291 3 -80 7 -194 10 -255 3
-60 7 -447 10 -860 3 -412 8 -859 11 -992 l6 -243 127 -2 c69 0 140 -2 156 -3
17 -2 156 -4 310 -6 357 -4 355 -5 371 146 16 143 6 1868 -12 2170 -14 245
-23 282 -90 357 -30 34 -53 62 -52 63 2 1 138 5 303 9 578 12 840 19 842 20 1
0 4 89 8 196 3 107 8 233 10 280 2 47 5 141 6 210 l1 125 -1378 2 -1379 2
-113 -107z"/>
<path d="M16995 8679 c-38 -5 -90 -16 -114 -24 -72 -24 -171 -110 -209 -181
-19 -36 -32 -180 -40 -449 -7 -271 -10 -2414 -3 -2616 8 -218 25 -303 63 -315
74 -23 740 -28 809 -6 49 16 77 50 96 113 12 43 16 116 19 349 4 397 -12 534
-80 690 l-34 80 287 0 287 0 143 -287 c252 -504 421 -808 496 -888 35 -38 47
-44 100 -52 33 -4 193 -8 355 -8 320 1 417 11 472 49 30 20 33 27 32 72 -2 77
-65 210 -336 704 -140 255 -298 560 -298 575 0 16 65 75 145 130 98 68 211
188 268 282 91 152 153 381 161 599 13 335 -107 623 -359 863 -153 145 -263
210 -422 250 -108 28 -263 49 -418 56 -72 4 -148 9 -170 11 -91 9 -1185 12
-1250 3z m1232 -755 c108 -10 161 -31 218 -85 150 -141 179 -388 66 -552 -90
-131 -228 -169 -613 -169 -284 1 -305 22 -319 337 -5 104 -13 212 -19 240 -13
65 -62 168 -94 200 -27 27 -25 31 29 39 40 5 658 -3 732 -10z"/>
<path d="M20590 8678 c-115 -11 -156 -29 -243 -109 -77 -70 -91 -103 -108
-259 -8 -72 -13 -602 -16 -1662 l-5 -1558 481 0 481 0 0 1795 0 1795 -117 2
c-331 4 -385 4 -473 -4z"/>
<path d="M11140 8000 c-47 -10 -263 -61 -480 -114 -1015 -244 -1698 -377
-2400 -467 -85 -10 -168 -21 -185 -24 -16 -2 -100 -11 -185 -20 -85 -9 -173
-18 -195 -20 -160 -16 -508 -41 -730 -52 -208 -10 -1417 -10 -1788 0 l-287 8
92 -89 c334 -320 487 -452 754 -652 652 -489 1451 -908 2260 -1183 797 -271
1760 -479 2444 -526 209 -15 608 -23 614 -13 7 12 72 362 96 522 11 74 34 248
50 385 17 138 32 264 35 280 11 80 79 782 90 935 3 47 8 105 10 130 5 51 13
166 25 350 13 204 8 534 -9 553 -18 22 -99 21 -211 -3z"/>
</g>
</svg>
